<?xml version="1.0" encoding="utf-8"?>
<!-- Generator: Adobe Illustrator 22.0.1, SVG Export Plug-In . SVG Version: 6.00 Build 0)  -->
<svg version="1.1" xmlns="http://www.w3.org/2000/svg" xmlns:xlink="http://www.w3.org/1999/xlink" x="0px" y="0px"
	 viewBox="0 0 125 125" enable-background="new 0 0 125 125" xml:space="preserve">
<pattern  x="-950.4" y="235.2" width="2.5" height="2.5" patternUnits="userSpaceOnUse" id="_x31_0_ppp_60_x25_" viewBox="0.7 -3.2 2.5 2.5" overflow="visible">
	<g>
		<rect x="0.7" y="-3.2" fill="none" width="2.5" height="2.5"/>
		<g>
			<path fill="#FFFFFF" d="M1.1,0c0.2,0,0.4-0.2,0.4-0.4c0-0.2-0.2-0.4-0.4-0.4c-0.2,0-0.4,0.2-0.4,0.4C0.7-0.2,0.9,0,1.1,0z"/>
			<path fill="#FFFFFF" d="M2.3,0c0.2,0,0.4-0.2,0.4-0.4c0-0.2-0.2-0.4-0.4-0.4c-0.2,0-0.4,0.2-0.4,0.4C1.9-0.2,2.1,0,2.3,0z"/>
		</g>
		<g>
			<path fill="#FFFFFF" d="M3.6,0c0.2,0,0.4-0.2,0.4-0.4c0-0.2-0.2-0.4-0.4-0.4c-0.2,0-0.4,0.2-0.4,0.4C3.2-0.2,3.4,0,3.6,0z"/>
		</g>
		<g>
			<path fill="#FFFFFF" d="M0.4-1.9c0.2,0,0.4-0.2,0.4-0.4c0-0.2-0.2-0.4-0.4-0.4C0.2-2.6,0-2.5,0-2.3C0-2.1,0.2-1.9,0.4-1.9z"/>
			<path fill="#FFFFFF" d="M0.4-0.7c0.2,0,0.4-0.2,0.4-0.4c0-0.2-0.2-0.4-0.4-0.4C0.2-1.4,0-1.3,0-1.1C0-0.9,0.2-0.7,0.4-0.7z"/>
		</g>
		<g>
			<path fill="#FFFFFF" d="M2.9-1.9c0.2,0,0.4-0.2,0.4-0.4c0-0.2-0.2-0.4-0.4-0.4c-0.2,0-0.4,0.2-0.4,0.4C2.5-2.1,2.7-1.9,2.9-1.9z"
				/>
			<path fill="#FFFFFF" d="M1.7-1.9C1.9-1.9,2-2.1,2-2.3c0-0.2-0.2-0.4-0.4-0.4c-0.2,0-0.4,0.2-0.4,0.4C1.3-2.1,1.5-1.9,1.7-1.9z"/>
			<path fill="#FFFFFF" d="M1.1-2.5c0.2,0,0.4-0.2,0.4-0.4c0-0.2-0.2-0.4-0.4-0.4c-0.2,0-0.4,0.2-0.4,0.4C0.7-2.7,0.9-2.5,1.1-2.5z"
				/>
			<path fill="#FFFFFF" d="M2.3-2.5c0.2,0,0.4-0.2,0.4-0.4c0-0.2-0.2-0.4-0.4-0.4c-0.2,0-0.4,0.2-0.4,0.4C1.9-2.7,2.1-2.5,2.3-2.5z"
				/>
			<path fill="#FFFFFF" d="M2.9-0.7c0.2,0,0.4-0.2,0.4-0.4c0-0.2-0.2-0.4-0.4-0.4c-0.2,0-0.4,0.2-0.4,0.4C2.5-0.9,2.7-0.7,2.9-0.7z"
				/>
			<path fill="#FFFFFF" d="M1.7-0.7C1.9-0.7,2-0.9,2-1.1c0-0.2-0.2-0.4-0.4-0.4c-0.2,0-0.4,0.2-0.4,0.4C1.3-0.9,1.5-0.7,1.7-0.7z"/>
			<path fill="#FFFFFF" d="M1.1-1.3c0.2,0,0.4-0.2,0.4-0.4C1.4-1.9,1.3-2,1.1-2C0.9-2,0.7-1.9,0.7-1.7C0.7-1.5,0.9-1.3,1.1-1.3z"/>
			<path fill="#FFFFFF" d="M2.3-1.3c0.2,0,0.4-0.2,0.4-0.4C2.6-1.9,2.5-2,2.3-2C2.1-2,1.9-1.9,1.9-1.7C1.9-1.5,2.1-1.3,2.3-1.3z"/>
		</g>
		<g>
			<path fill="#FFFFFF" d="M3.6-2.5c0.2,0,0.4-0.2,0.4-0.4c0-0.2-0.2-0.4-0.4-0.4c-0.2,0-0.4,0.2-0.4,0.4C3.2-2.7,3.4-2.5,3.6-2.5z"
				/>
			<path fill="#FFFFFF" d="M3.6-1.3c0.2,0,0.4-0.2,0.4-0.4C3.9-1.9,3.8-2,3.6-2C3.4-2,3.2-1.9,3.2-1.7C3.2-1.5,3.4-1.3,3.6-1.3z"/>
		</g>
		<g>
			<path fill="#FFFFFF" d="M0.4-3.2c0.2,0,0.4-0.2,0.4-0.4c0-0.2-0.2-0.4-0.4-0.4C0.2-3.9,0-3.8,0-3.6C0-3.4,0.2-3.2,0.4-3.2z"/>
		</g>
		<g>
			<path fill="#FFFFFF" d="M2.9-3.2c0.2,0,0.4-0.2,0.4-0.4c0-0.2-0.2-0.4-0.4-0.4c-0.2,0-0.4,0.2-0.4,0.4C2.5-3.4,2.7-3.2,2.9-3.2z"
				/>
			<path fill="#FFFFFF" d="M1.7-3.2C1.9-3.2,2-3.4,2-3.6c0-0.2-0.2-0.4-0.4-0.4c-0.2,0-0.4,0.2-0.4,0.4C1.3-3.4,1.5-3.2,1.7-3.2z"/>
		</g>
	</g>
</pattern>
<g id="BG">
</g>
<g id="Capa_14">
	<g>
		<rect fill="#FFD400" width="125" height="125"/>
	</g>
</g>
<g id="Capa_1">
</g>
<g id="Capa_4">
</g>
<g id="Capa_7">
</g>
<g id="Capa_6">
</g>
<g id="Capa_5">
</g>
<g id="Capa_2">
</g>
<g id="Capa_3">
</g>
<g id="Capa_8">
</g>
<g id="Capa_9">
</g>
<g id="Capa_12">
</g>
<g id="Capa_13">
</g>
<g id="Capa_11">
</g>
<g id="BLACK">
	<path d="M49.3,61c0,0-2.7,2.1-2.8,4.6c-0.2,2.5-18.2,9.2-18.2,9.2l-4.2,11.7l25.7,12L77,98.6l27.6-16.2l-0.3-4.7
		c-0.4-1.6-1.5-2.9-3-3.6L74.6,61.6L49.3,61z"/>
	<path fill="#FFFFFF" d="M53.7,71.2c0,0,1.7,5.2,4.5,7.8s6.8,5.4,6.8,5.4s-2.7,0.9-4.2,1.2c-1.6,0.3-7.6-0.6-8-1.5
		c-2.6-5.1-2.5-11.7-2.5-11.7L53.7,71.2z"/>
	<path fill="#FFFFFF" d="M76.6,71.2c0,0-2.4,5.8-4.7,8.6c-1,1.2-7,4.6-7,4.6s3.7,1.9,5.5,1.5c8-1.7,8.4-8.6,8.4-8.6L76.6,71.2z"/>
	<g>
		<path d="M67.2,23.7c0,0,0.7-1.5,5.9,3.5c5.2,5,7.2,14.8,7.2,14.8s4.1,5.5,4.1,8.5s-0.6,6.9-0.6,6.9s2.3,2.8,3.1,6.8
			c0.2,0.9-0.1,3.4-0.3,4.4c-0.6,3.3-2.5,6.7-1.2,8.8c1.7,2.7,3.3,4,4.8,8.8c0.9,2.7,0,4.8,0,4.8s5.2,2.1,4.7,8.2
			s-0.8,12.6-0.8,12.6s-6.7-8.9-6.2-13.7c0.5-4.8-4.3-7.3-4.3-7.3s1.7,3.3,2,6.3c0.3,3,2.5,10.3,2.1,10.3c0,0-2.6-7-4.5-9.5
			c-1.6-2.1-2.8-5.9-2.1-7.7c0.7-1.8-9.3,1-10.2-7.7s4.8-21.7,5.3-28.5s-4.6-17.6-7.4-20.5C66,30.4,67.2,23.7,67.2,23.7z"/>
		<path d="M94.5,113.2l-0.8-1.1c-0.3-0.4-6.8-9.1-6.3-14.1c0.3-2.8-1.4-4.8-2.7-5.9c0.5,1.3,1.1,3.1,1.3,4.9c0.2,1.5,0.8,4,1.3,6.2
			c0.9,3.8,1,4.1,0.7,4.4l-0.2,0.2l-0.6,0l-0.1-0.3c0-0.1-2.6-7-4.5-9.4c-1.6-2.1-2.9-6-2.2-8.1c-0.3-0.1-1-0.2-1.6-0.3
			c-2.8-0.3-8-1-8.6-7.3c-0.5-5.3,1.4-12.2,3.1-18.3c1.1-3.9,2.1-7.6,2.3-10.3c0.5-6.7-4.6-17.4-7.3-20.1c-3-3-1.8-9.8-1.7-10.1
			l0-0.1c0.1-0.2,0.3-0.4,0.7-0.5c1.1-0.2,3.1,1.1,6,3.8c5,4.8,7,13.8,7.3,15c0.6,0.8,4.1,5.8,4.1,8.7c0,2.6-0.4,5.9-0.5,6.8
			c0.5,0.7,2.3,3.3,3.1,6.8c0.2,1.1-0.1,3.6-0.3,4.6c-0.2,1.1-0.5,2.1-0.8,3.2c-0.6,2.1-1.2,4.1-0.5,5.3c0.4,0.7,0.9,1.3,1.3,1.9
			c1.2,1.7,2.4,3.4,3.6,7c0.7,2.1,0.4,3.9,0.1,4.7c1.3,0.7,5,3.1,4.6,8.5c-0.5,6.1-0.8,12.5-0.8,12.6L94.5,113.2z M82.5,89.5
			l1.4,0.7c0.2,0.1,5.1,2.7,4.6,7.8c-0.4,3.6,3.5,9.7,5.3,12.2c0.1-2.2,0.4-6.8,0.7-11.2c0.5-5.7-4.3-7.7-4.4-7.7l-0.5-0.2l0.2-0.5
			c0,0,0.8-2,0-4.5c-1.1-3.5-2.2-5.1-3.4-6.7c-0.4-0.6-0.9-1.2-1.3-1.9c-1-1.6-0.3-3.8,0.3-6.1c0.3-1,0.6-2,0.8-3
			c0.2-1.1,0.4-3.4,0.3-4.2c-0.8-3.8-3-6.6-3-6.6l-0.1-0.2l0-0.2c0,0,0.6-3.9,0.6-6.8c0-2.8-3.9-8.1-4-8.2l-0.1-0.2
			c0-0.1-2-9.7-7-14.6C69.2,24.1,68,24,67.7,24c-0.2,1.1-0.9,6.6,1.5,9c2.9,2.9,8.1,13.8,7.6,20.9c-0.2,2.8-1.2,6.5-2.3,10.4
			c-1.6,6-3.5,12.8-3,18c0.5,5.5,4.9,6,7.7,6.4c1.3,0.2,2,0.2,2.3,0.8c0.1,0.2,0.2,0.4,0.1,0.8c-0.6,1.6,0.4,5.2,2,7.3
			c0.8,1.1,1.8,2.9,2.6,4.8c-0.5-1.9-0.9-3.9-1.1-5.1c-0.3-2.9-1.9-6.1-2-6.2L82.5,89.5z"/>
	</g>
	<path fill="#FFFFFF" d="M72.5,81.2c0.2,0.9,0.6,1.8,1.2,2.5c0.6,0.7,1.4,1.2,2.2,1.5c1.7,0.7,3.5,1,5.4,1.5
		c0.9,0.2,1.9,0.5,2.8,1.2c0.8,0.6,1.4,1.4,2,2.2c1.1,1.6,1.9,3.3,2.5,5.1c-1-1.6-2.1-3.2-3.2-4.6c-0.6-0.7-1.2-1.4-1.9-1.9
		c-0.6-0.5-1.5-0.8-2.4-1c-1.8-0.5-3.7-0.8-5.4-1.8c-0.9-0.5-1.7-1.1-2.2-1.9C72.8,83.1,72.5,82.1,72.5,81.2z"/>
	<path fill="#FFFFFF" d="M80.8,90.1c1.2,0.7,2.3,1.4,3.1,2.5c0.8,1.1,1.2,2.5,1.6,3.8c0.7,2.6,1.1,5.7,1.6,8.4l0,0l0,0l0,0
		c-0.6-2.6-1.3-5.3-2.1-7.9c-0.4-1.3-0.9-2.5-1.6-3.7C82.6,92.2,81.7,91.1,80.8,90.1L80.8,90.1L80.8,90.1L80.8,90.1z"/>
	<pattern  id="SVGID_2_" xlink:href="#_x31_0_ppp_60_x25_" patternTransform="matrix(1 0 0 1 7.9095 -4.7302)">
	</pattern>
	<path fill="url(#SVGID_2_)" d="M78.5,55.3c0,0,0,6.5-2.3,12.7c-1.1,3.2-3.2,9.7-1.3,14.5c0.8,1.9,2.6,3.4,2.6,3.4s-4.6-1.3-5-4.7
		c-0.4-3.4,4.7-25.8,4.7-25.8L78.5,55.3z"/>
	<pattern  id="SVGID_4_" xlink:href="#_x31_0_ppp_60_x25_" patternTransform="matrix(1 0 0 1 8.0503 -4.7302)">
	</pattern>
	<path fill="url(#SVGID_4_)" d="M79.9,86.3c0,0-2.2-3.4-2-4.7c0.3-1.5,0.9-3.3,0-5.6s2.3-6.5,0.9-9.3c-1.4-2.7-0.8-6-0.8-6l0.3-4.9
		l0.2,0.4l2.9,3c0,0,2.2,2.6,3.2,3.4c1,0.8,0.3,5.2,0,6.6c-0.3,1.5-1.4,4.4-1.4,4.4s1.2,2.7,0.4,6.6s0.4,4.5,0.3,5.5
		s0.1,2.4,0.1,2.4L79.9,86.3z"/>
	<path fill="#FFFFFF" d="M83.4,82.7C83,82,82.6,81.4,82,80.9c-0.3-0.2-0.6-0.5-0.9-0.7l-0.5-0.4c-0.2-0.1-0.3-0.3-0.5-0.5
		c-0.5-0.7-1.7-1.9-2-2.6c-0.3-0.7-0.5-1-0.5-2.3l1.3,2.5c0.3,0.7,1.3,1.4,1.7,2c0.1,0.1,0.2,0.3,0.4,0.4l0.5,0.4
		c0.3,0.3,0.6,0.5,0.9,0.9C83,81.1,83.3,81.9,83.4,82.7z"/>
	<path fill="#FFFFFF" d="M78.6,56.3c1.3,0.8,2.5,1.8,3.7,2.9c1.1,1.1,2.2,2.3,2.9,3.8c0.4,0.7,0.6,1.5,0.7,2.4c0,0.4,0,0.9-0.1,1.3
		l-0.3,1.1c-0.4,1.5-0.9,2.9-1.4,4.4c-0.1-1.6,0.1-3.1,0.5-4.7l0.3-1.1c0.1-0.3,0.1-0.7,0.1-1c0-0.7-0.3-1.4-0.6-2
		c-0.6-1.3-1.6-2.6-2.5-3.7C80.8,58.5,79.8,57.4,78.6,56.3z"/>
	<path fill="#FFFFFF" d="M77.9,81.8l1.3,1.5c0.5,0.5,1.6,1,2.2,1.4c0.6,0.4,1.2,0.8,1.8,1.3c0.5,0.5,1,1.2,1,2
		c-0.3-0.7-0.8-1.1-1.4-1.5c-0.6-0.4-1.2-0.7-1.8-1.1c-0.7-0.4-1.7-1-2.2-1.6C78.4,83.1,78.1,82.5,77.9,81.8z"/>
	<pattern  id="SVGID_6_" xlink:href="#_x31_0_ppp_60_x25_" patternTransform="matrix(1 0 0 1 7.9095 -4.7302)">
	</pattern>
	<path fill="url(#SVGID_6_)" d="M89.1,92.2c0,0,4.2,3.2,4.2,5.1s0.4,10.9,0.4,10.9s-4.8-7.7-4.1-9.5C90.7,95.4,89.1,92.2,89.1,92.2z
		"/>
	<path fill="#FFFFFF" d="M78.1,64.2l1.2,3c0.4,0.9,0.9,2,1.5,2.6c0.3,0.3,0.8,0.7,1.2,1.2c0.4,0.4,0.7,0.9,1,1.4c0.5,1,1,2,1,3.1
		c-0.5-1-1-1.9-1.7-2.7c-0.7-0.8-1.3-1.5-2.2-2.2c-0.9-0.9-1.2-2-1.5-3C78.3,66.4,78.1,65.3,78.1,64.2z"/>
	<path d="M49.3,61c0,0,6.5,9.7,11.6,9.7s12.1-5.3,14.4-8.8c1-1.5,1.8-6.3,1.8-6.3s0.6,1.1,1,1c1.9-0.6,3.4-5.5,3-7.4
		c-0.2-1.3-1.4-2.5-2.6-2.2c-0.7,0.2-1.5,2.7-1.5,2.7l-0.8-5.8l-8.5-13.3l-6.3-2.2l-12.1,16V61z"/>
	<path fill="#FFFFFF" d="M49.6,60.5c0,0,6.2,9.2,11.2,9.2s11.6-4.8,13.9-8.1c1-1.4,2.5-6.2,2.5-6.2s0.5,0.9,0.9,0.8
		c1-0.3,2.2-4.1,2.2-5.8c0-1-0.4-3.1-2-3c-0.8,0-1.7,2.4-1.7,2.4s-0.7-5.8-5.8-11c-2.5-2.5-2.6-5.2-3.9-6.5
		c-1.6-1.5-5.6-2.8-5.6-2.8L49.6,44.6V60.5z"/>
	<path d="M67.4,57.7c0.5,0.1,1.1,0.2,1.4,0.6c0.1,0.2,0.4,1.4,0.5,1.6c-0.2-0.2-0.3-0.4-0.4-0.7c-0.1-0.2-0.2-0.5-0.4-0.7
		c-0.1-0.2-0.3-0.4-0.5-0.5C67.8,58,67.6,57.9,67.4,57.7z"/>
	<g>
		<path d="M63.1,47.5c0,0,1-1.8,2.8-1.9c1.8-0.2,3.6,1.2,3.6,1.2s1.4-0.5,1.8-0.9l-1.8,0.1c0.2-0.1-2.3-1-3.7-0.7
			C64,45.6,63.1,47.5,63.1,47.5z"/>
		<path d="M69.4,47.3c-0.1,0.3-0.3,0.6-0.6,0.8c-0.3,0.2-0.6,0.4-0.9,0.5c-0.3,0.1-0.7,0.2-1,0.2c-0.3,0-0.7,0-1-0.1
			c0.7-0.1,1.3-0.2,1.9-0.4c0.3-0.1,0.6-0.2,0.9-0.4C69,47.7,69.3,47.6,69.4,47.3z"/>
		<path d="M62.5,43.5c-0.3,0.1-0.1,1.4,0.2,1.2c2.8-1.8,9-0.9,9-0.9S67.7,41.9,62.5,43.5z"/>
		<circle cx="66.3" cy="47.1" r="1.4"/>
	</g>
	<g>
		<path d="M56.6,48.1c0,0-1-1.7-2.8-1.8c-1.8-0.1-3.6,1.1-3.6,1.1s-1.4-0.5-1.8-0.9l2,0.1c-0.2-0.1,2.1-1,3.5-0.7
			C55.7,46.3,56.6,48.1,56.6,48.1z"/>
		<path d="M50.3,47.8c0.2,0.3,0.4,0.5,0.7,0.7c0.3,0.2,0.6,0.3,0.9,0.4c0.6,0.2,1.3,0.3,1.9,0.4c-0.3,0.1-0.7,0.1-1,0.1
			c-0.3,0-0.7-0.1-1-0.2c-0.3-0.1-0.6-0.3-0.9-0.5C50.6,48.4,50.3,48.2,50.3,47.8z"/>
		<path d="M57.2,44.1c0.3,0.1,0.1,1.4-0.2,1.2c-2.8-1.8-9-0.9-9-0.9S52,42.5,57.2,44.1z"/>
		<circle cx="53.4" cy="47.7" r="1.4"/>
	</g>
	<path d="M57.9,52.1c0,0-0.6,1.1-0.9,2c-0.3,0.7-0.6,1.1-0.6,1.5c0,1.1,2.1,2.1,2.4,1.8c0.2-0.2,0.4-0.8,0.2-1
		c-0.2-0.2-0.6-0.3-0.9-0.5C57.5,55.6,57.9,52.1,57.9,52.1z"/>
	<path d="M66.8,60c0,0-3.2,3.2-4.5,3.6s-2.6,0.2-3.4-0.2c-1.2-0.5-2.7-2.5-2.7-2.5l2.8,0.4c0.6,0.4,1,0.3,1.8,0.2
		c0.8-0.1,1.5,0,2-0.3c0.4-0.3,1.4-0.3,1.4-0.3L66.8,60z"/>
	<path d="M60.8,60.9c0,0,0.6-0.8,1.6-0.8c0.7,0.1,2.5,0.3,3.5,0c0.7-0.2,1.3-0.4,1.3-0.3c0,0-4.7,1.9-6.1,1.9
		c-1.7,0-3.6-0.2-4.7-0.7s-1-0.5-1-0.5s2.2,0.3,3.8-0.2C59.8,60.1,60.8,60.9,60.8,60.9z"/>
	<path d="M67.4,23.7c0,0-7.6-6.2-17.7,2.5S37.4,55.7,38.1,62.7c0.3,2.4-0.2,6.7-1.8,7.1c-5.1,1.2-9.9,2.5-13.2,9.3
		c-3.3,6.8-2.8,17.7-2.8,17.7s8.2-19.3,14.4-22.6c0.4-0.3-4.8,6.3-3.3,13.5c1.2,5.3-9.6,14.1-9.6,14.1s12.8-2.9,13.9-8.8
		c0.2-0.9,0.1-1.2,0.4-2.3c0.4,12,9.4,22.5,9.4,22.5s-2-8.9,2.6-15.6s4.6-12.4,4.2-17.4c-0.7-7.7-3.5-12.6-2.2-23.4
		c1.3-10.8,3.1-9.8,8.4-18.6c2.7-4.4,7.9-6.1,8.8-8.4C68,28.4,67.4,23.7,67.4,23.7z"/>
	<pattern  id="SVGID_8_" xlink:href="#_x31_0_ppp_60_x25_" patternTransform="matrix(1 0 0 1 8.2988 -4.7302)">
	</pattern>
	<path fill="url(#SVGID_8_)" d="M38.1,70.8c0,0-5.2,6.3-5.6,11s1.7,7-2.7,12.2s-5.7,6.9-5.7,6.9s7.6-3.2,9.6-6.3s1.4-8.1,1.4-11.6
		S38.1,70.8,38.1,70.8z"/>
	<path fill="#FFFFFF" d="M38.1,70.5c-2,1.6-3.9,3.3-5.8,4.9c-1,0.8-1.9,1.7-2.8,2.6c-0.9,0.9-1.8,1.8-2.3,2.9
		c-1.1,2.3-2.2,4.6-3.3,6.9l-3.2,6.9c0.9-2.4,1.9-4.8,2.9-7.1c1-2.4,2-4.7,3.1-7c1.3-2.3,3.3-4,5.3-5.7
		C33.8,73.3,35.9,71.9,38.1,70.5z"/>
	<pattern  id="SVGID_10_" xlink:href="#_x31_0_ppp_60_x25_" patternTransform="matrix(1 0 0 1 7.9095 -4.7302)">
	</pattern>
	<path fill="url(#SVGID_10_)" d="M20.7,95.1c0,0,2.6-13.2,5.1-16.8c2.9-4,13-8.4,13-8.4s-9.4,7.3-11.7,10.4
		C24.7,83.6,20.7,95.1,20.7,95.1z"/>
	<path d="M78.2,50.1c0.6,0.3,0.8,0.8,0.8,1.4c0,0.5-0.2,1.1-0.8,1.4c-0.1-0.3-0.1-0.5-0.2-0.8c0-0.2,0-0.4,0-0.6
		C78.1,51.1,78.1,50.7,78.2,50.1z"/>
	<path fill="#FFFFFF" d="M69.3,28.7c0.6,0.1,1,0.5,1.4,0.9c0.4,0.4,0.8,0.7,1.2,1.1c0.7,0.8,1.5,1.6,2.2,2.5c0.4,0.4,0.7,0.8,1,1.3
		c0.3,0.5,0.6,1,0.8,1.5l1.2,3c0.4,1,0.9,1.9,1.4,2.8c0.6,0.9,1.3,1.7,1.9,2.6c0.6,0.9,1.2,1.8,1.7,2.8c0.5,1,0.9,2.1,0.9,3.2
		c-0.2-1.1-0.7-2-1.3-2.9c-0.6-0.9-1.2-1.8-1.9-2.6c-0.7-0.8-1.4-1.6-2.1-2.5c-0.7-0.9-1.1-1.9-1.6-2.9c-0.4-1-0.8-2-1.2-3
		c-0.2-0.5-0.4-1-0.7-1.4c-0.3-0.4-0.6-0.9-0.9-1.3c-0.6-0.9-1.2-1.8-1.9-2.6c-0.3-0.4-0.6-0.9-1-1.3c-0.2-0.2-0.3-0.4-0.5-0.6
		C69.8,29,69.6,28.8,69.3,28.7z"/>
	<path fill="#FFFFFF" d="M72.8,39.4c1.2,0.5,2,1.6,2.7,2.7c0.3,0.5,0.6,1.1,0.9,1.6c0.1,0.3,0.2,0.6,0.4,0.8
		c0.1,0.3,0.3,0.5,0.5,0.7c-0.3,0.1-0.7-0.2-0.9-0.4c-0.3-0.2-0.5-0.5-0.7-0.7c-0.4-0.5-0.7-1-1-1.5L72.8,39.4z"/>
	<path fill="#FFFFFF" d="M50.1,33.6c-0.5,0.8-6,12.7-6,14.4c0,0,9.1-14.5,9-13.2c-0.1,1.3-1.9,6.9-2.3,7.9c-1.5,3.5-4.1,8-7.9,12.1
		c-3.7,4-3.4,17.4-3.4,17.4c0-1.8,1.3-14.3,7.3-19.8c4.3-3.9,10.5-12.8,11.1-16c0.9-5.1,5.3-7.1,5.3-7.1c-1.8-1.7-6.5-0.2-6.5-0.2
		S56.1,29,59,27.7c0.9-0.4,2.8-1,2.8-1s-1.3-0.5-3.8,0.1c-1.4,0.3-4,1.9-4,1.6c0-0.5,2.6-2,3.6-2.6c1.9-1,6.5-1.8,6.5-1.8
		s-7.3-0.8-13.8,5.4c-4.9,4.6-7.1,13-7.1,13S48.5,34.5,50.1,33.6"/>
	<path fill="#FFFFFF" d="M49.1,61c0,0-0.8,3.6-1.8,9.5c-1,5.6-5.2,5.5-8.1,11c-0.7,1.3-0.3,6.6-0.3,6.6s-0.3-5.8,3-8.1
		c2.6-1.8,7.3-6.1,7.2-9.7C48.9,65.2,49.1,61,49.1,61z"/>
	<path fill="#FFFFFF" d="M48.6,72.2c0,0-1.5,7.3-4,8.8s-4.6,2.7-5.2,5.8s0.5,5.9,0.5,5.9s-0.3-3.8,0.9-6.2c1-2,2.7-3.3,4.6-4.5
		C49.5,79.3,48.6,72.2,48.6,72.2z"/>
	<path fill="#FFFFFF" d="M40.4,100.5c0,0-1.3-9.1,1.8-12.3c3.8-3.9,3.7-3.2,4.8-5.4c1.2-2.4,1.9-12.3,1.9-12.3s0.9,11.8-0.9,14
		c-1.2,1.5-5.1,5.1-5.8,6.4C41.2,93.1,40.4,100.5,40.4,100.5z"/>
	<pattern  id="SVGID_12_" xlink:href="#_x31_0_ppp_60_x25_" patternTransform="matrix(1 0 0 1 7.9095 -4.7302)">
	</pattern>
	<path fill="url(#SVGID_12_)" d="M46,76.6c0,0-7.3,2.4-7.1,5.9c0.2,3.4-0.8,14.6,4,24.8c0,0,0.7-8,4.8-13.8s3.7-5.1,2.6-13.1
		s-1.4-11-1.4-11L46,76.6z"/>
	<pattern  id="SVGID_14_" xlink:href="#_x31_0_ppp_60_x25_" patternTransform="matrix(0.8891 0 0 1 -797.699 -4.7302)">
	</pattern>
	<path fill="url(#SVGID_14_)" d="M47.5,36.3C47.1,37,44,46.5,44.1,48c0,0,6.7-11.9,6.7-10.8s-2.3,6.8-2.6,7.7
		c-1.1,3-2.6,4.2-5.2,7.9S41,62.7,41,62.7c0-1.6-0.1-4.7,4.2-9.4C48.4,50,51.9,43,53.7,40c2.3-3.8,2.3-6.8,2.3-6.8
		c-1.3-1.5-3.6-0.1-3.6-0.1s-0.3-0.1,1.7-1.2c0.7-0.4,2-0.9,2-0.9s-0.9-0.5-2.7,0.1c-1,0.3-2.9,1.6-2.9,1.3c0-0.5,1.9-1.8,2.6-2.2
		c1.4-0.9,4.7-1.5,4.7-1.5s-3.8-1.8-8.5,3.5c-3.5,4-2.9,3.1-2.9,3.1s0.1,2.5,1.3,1.7"/>
	<path fill="#FFFFFF" d="M49.6,59.3c-0.3,2.8-0.9,5.6-0.1,8.3c0.4,2.8,1,5.5,1.4,8.3c0.4,2.8,0.8,5.6,0.7,8.4
		c-0.1,1.4-0.3,2.9-0.7,4.2c-0.5,1.4-1.2,2.6-2.1,3.7c1.6-2.3,2.1-5.1,2-7.9c0-2.8-0.5-5.5-0.8-8.3c-0.4-2.8-0.7-5.6-0.9-8.4
		c0-1.4-0.2-2.8,0-4.2C49.1,62.1,49.3,60.7,49.6,59.3z"/>
</g>
</svg>
