<?xml version="1.0" encoding="utf-8"?>
<!-- Generator: Adobe Illustrator 22.0.1, SVG Export Plug-In . SVG Version: 6.00 Build 0)  -->
<svg version="1.2" baseProfile="tiny" xmlns="http://www.w3.org/2000/svg" xmlns:xlink="http://www.w3.org/1999/xlink" x="0px"
	 y="0px" viewBox="0 0 49.8 26" xml:space="preserve">
<g id="BG">
</g>
<g id="Capa_14">
</g>
<g id="Capa_1">
	<rect y="0" width="49.8" height="26"/>
	<g>
		<polygon fill="#FFD400" points="7.9,14 5.9,14 5.9,14 5.9,16 5.9,16 5.9,18 5.9,20 7.9,20 7.9,18 9.9,18 9.9,16 11.9,16 11.9,14 
			7.9,14 		"/>
		<polygon fill="#FFD400" points="7.9,6 5.9,6 5.9,10 5.9,12 7.9,12 11.9,12 11.9,10 7.9,10 		"/>
		<rect x="17.9" y="6" fill="#FFD400" width="2" height="6"/>
		<polygon fill="#FFD400" points="17.9,18 15.9,18 15.9,14 13.9,14 13.9,18 13.9,20 15.9,20 17.9,20 19.9,20 19.9,18 19.9,14 
			17.9,14 		"/>
		<rect x="13.9" y="6" fill="#FFD400" width="2" height="6"/>
		<polygon fill="#FFD400" points="25.9,18 21.9,18 21.9,20 25.9,20 27.9,20 27.9,18 27.9,14 25.9,14 		"/>
		<polygon fill="#FFD400" points="23.9,8 27.9,8 27.9,6 21.9,6 21.9,6 21.9,8 21.9,12 23.9,12 		"/>
		<polygon fill="#FFD400" points="29.9,18 29.9,20 31.9,20 35.9,20 35.9,18 31.9,18 31.9,14 29.9,14 		"/>
		<polygon fill="#FFD400" points="31.9,8 35.9,8 35.9,6 29.9,6 29.9,6 29.9,6 29.9,12 31.9,12 		"/>
		<polygon fill="#FFD400" points="41.9,18 39.9,18 39.9,14 37.9,14 37.9,20 39.9,20 41.9,20 43.9,20 43.9,20 43.9,14 41.9,14 		"/>
		<polygon fill="#FFD400" points="42.9,6 42.9,6 37.9,6 37.9,6 37.9,6 37.9,12 39.9,12 39.9,8 41.9,8 41.9,12 43.9,12 43.9,6 		"/>
	</g>
</g>
<g id="Capa_4">
</g>
<g id="Capa_7">
</g>
<g id="Capa_6">
</g>
<g id="Capa_5">
</g>
<g id="Capa_2">
</g>
<g id="Capa_3">
</g>
<g id="Capa_8">
</g>
<g id="Capa_9">
</g>
<g id="Capa_12">
</g>
<g id="Capa_13">
</g>
<g id="Capa_11">
</g>
<g id="BLACK">
</g>
</svg>
